<?xml version="1.0" encoding="UTF-8" standalone="no"?>
<!-- Created with Inkscape (http://www.inkscape.org/) -->

<svg
   width="1000mm"
   height="256mm"
   viewBox="0 0 1000 256"
   version="1.1"
   id="svg1"
   inkscape:version="1.3.2 (091e20e, 2023-11-25, custom)"
   sodipodi:docname="dragon-ball-z-logo.svg"
   xmlns:inkscape="http://www.inkscape.org/namespaces/inkscape"
   xmlns:sodipodi="http://sodipodi.sourceforge.net/DTD/sodipodi-0.dtd"
   xmlns="http://www.w3.org/2000/svg"
   xmlns:svg="http://www.w3.org/2000/svg">
  <sodipodi:namedview
     id="namedview1"
     pagecolor="#505050"
     bordercolor="#eeeeee"
     borderopacity="1"
     inkscape:showpageshadow="0"
     inkscape:pageopacity="0"
     inkscape:pagecheckerboard="0"
     inkscape:deskcolor="#505050"
     inkscape:document-units="mm"
     inkscape:zoom="0.1280329"
     inkscape:cx="1464.4673"
     inkscape:cy="902.11186"
     inkscape:window-width="1920"
     inkscape:window-height="1009"
     inkscape:window-x="-8"
     inkscape:window-y="-8"
     inkscape:window-maximized="1"
     inkscape:current-layer="layer1" />
  <defs
     id="defs1" />
  <g
     inkscape:label="Capa 1"
     inkscape:groupmode="layer"
     id="layer1">
    <g
       class="Group"
       id="g12"
       transform="scale(0.01)">
      <path
         d="M 91483,25500 97201,7874 89684,14549 89004,13230 100000,0 H 75490 l -4039,17386 6638,-6634 1119,1918 -10715,12830 z M 79528,9233 81128,7634 h 2519 l -1360,1599 z m 5438,8593 1359,-1559 h 1240 l -1519,1599 z"
         class="com.sun.star.drawing.PolyPolygonShape"
         id="path2" />
      <path
         d="m 7397,13715 c -80,-679 -160,-1279 -280,-1878 400,120 600,439 680,839 80,360 -40,799 -400,1039 z m 60216,2358 c 720,-4116 1519,-8233 2239,-12390 -1759,400 -4438,1119 -5438,1359 -480,3157 -959,6395 -1519,9552 -120,40 -240,40 -360,40 240,-3037 360,-5755 640,-9192 -1640,239 -3319,559 -4958,919 -40,599 -160,1479 -200,2278 -160,-719 -280,-1399 -440,-2158 -1719,200 -3479,400 -5238,599 -120,400 -160,680 -280,1159 -2319,-1358 -5678,-879 -8237,-319 -1199,0 -2598,-80 -3838,-120 -40,799 -120,1599 -160,2358 -400,-799 -800,-1599 -1239,-2438 -1280,-40 -2559,-80 -3759,-120 -160,1439 -280,2918 -520,4317 -160,-80 -520,-80 -759,-80 80,-680 160,-1359 200,-2079 -520,-1239 -1720,-2238 -2999,-2638 -2559,-879 -5678,-599 -7717,1239 -280,-799 -480,-1359 -680,-2158 -1559,-280 -4638,-839 -4998,-919 -80,160 -120,280 -200,479 -2039,-2238 -4718,-3237 -7717,-2877 -40,439 -80,839 -80,1199 C 8117,3004 6797,2084 5358,1485 3719,845 1879,366 0,565 c 520,3398 1559,10312 1599,10432 200,0 600,0 840,40 720,4197 1359,8274 1999,12470 1440,-159 2799,-839 4079,-1638 40,439 80,799 120,1159 l 5277,360 c 40,-280 40,-560 120,-800 280,400 440,880 680,1359 1839,-599 3719,-1319 5558,-1958 -160,-400 -440,-760 -640,-1159 160,0 320,40 480,0 80,-400 120,-720 240,-1239 80,479 440,2637 600,3557 839,-120 1559,-240 2439,-360 879,640 1879,1119 2958,1359 2080,240 3999,-640 5398,-2158 400,160 1040,319 1400,279 -40,680 -80,1279 -80,1879 2039,0 4118,-40 6157,-80 40,-400 80,-799 160,-1199 240,480 440,799 760,1319 1439,-40 2879,-40 4398,-40 0,-1958 40,-5356 80,-5356 240,1959 320,3238 520,5036 1479,360 3239,160 4718,0 l 80,80 c 1519,80 3079,240 4598,320 160,-1079 400,-2598 520,-3597 l 440,3317 c 1759,-240 3518,-599 5318,-839 -80,-480 -120,-760 -200,-1159 360,-40 839,-120 1159,-160 -80,679 -160,1319 -240,2038 2519,-40 7717,40 7757,-40 560,-2638 1320,-6714 1680,-8393 -1120,240 -2040,440 -3359,679 z"
         class="com.sun.star.drawing.ClosedBezierShape"
         id="path3" />
      <path
         fill="#e30613"
         d="m 97361,1209 c -1639,1998 -6597,7994 -9836,11911 280,599 560,1239 840,1918 -800,0 -1280,0 -2439,-40 -1000,1319 -2479,3078 -3159,3957 1359,-40 2519,-40 3678,-40 2759,-2438 5478,-4956 8277,-7314 -1279,4237 -2639,8393 -4038,12590 40,80 -80,40 -120,120 -6638,-40 -12595,0 -19273,-80 3079,-3757 6278,-7474 9477,-11191 -520,-920 -1000,-1759 -1440,-2598 1200,0 2279,0 3559,40 1199,-1319 2279,-2678 3438,-4037 h -5837 c -2239,2318 -4438,4516 -6718,6835 120,-480 1800,-8194 2759,-12111 7198,0 13715,-40 20832,40 z M 66373,17266 c 800,-159 2000,-359 3319,-599 -320,1918 -800,3917 -1199,5835 -2040,0 -3879,80 -5798,80 40,-319 80,-599 120,-919 720,-120 1439,-160 2199,-240 120,-679 840,-4836 1279,-7354 -919,120 -1679,240 -2439,360 440,-2678 1000,-5836 1440,-8634 1079,-319 2199,-599 3359,-879 -480,2558 -1520,8354 -2280,12350 z"
         class="com.sun.star.drawing.ClosedBezierShape"
         id="path4" />
      <path
         fill="#e30613"
         d="m 62015,6635 c -120,3117 -360,5955 -560,9033 680,-120 2439,-400 3639,-560 -120,720 -560,3717 -880,5236 -1279,160 -2799,360 -3718,520 -560,-2958 -1200,-6036 -1680,-8953 80,-1599 120,-3198 240,-4757 1000,-199 1960,-399 2959,-519 z"
         class="com.sun.star.drawing.ClosedBezierShape"
         id="path5" />
      <path
         fill="#ffd300"
         d="m 32747,9880 c -40,679 -120,1318 -200,1998 -720,120 -1639,520 -2279,1079 -200,-240 -400,-480 -720,-639 -959,-600 -2439,-360 -3318,120 -1160,719 -1480,1718 -1280,3357 -520,-2078 -1040,-4077 -1599,-6235 1799,-1719 3998,-2358 6917,-1519 880,400 1999,839 2479,1839 z m 5278,-1367 c 879,1839 1759,3637 2639,5436 160,-1759 200,-3557 280,-5316 879,0 1799,80 2719,120 119,4836 40,9353 0,14229 -920,0 -2000,0 -2959,40 -600,-1239 -1240,-2478 -1920,-3717 -119,1119 -319,2558 -479,3717 -1320,40 -2759,0 -4119,0 v -759 c 1840,-240 3879,-1759 4399,-3598 559,-1878 120,-4036 -1400,-5435 -520,-480 -1119,-840 -1759,-1119 160,-1399 400,-3678 400,-3678 799,0 1479,0 2199,80 z m -23391,4157 c -280,160 -600,280 -840,160 80,-999 160,-1919 280,-3038 440,40 840,320 1080,800 200,479 80,1598 -520,2078 z m 440,2678 c 800,-520 1639,-1239 2159,-2118 960,-1479 1120,-3797 160,-5356 -1040,-2079 -3239,-3637 -5438,-4037 -480,-80 -1039,-120 -1519,-120 -40,480 -40,919 -80,1399 840,1039 1439,2158 1879,3357 1559,4277 520,9233 -2559,12431 v 1079 c 1080,80 2199,120 3319,160 160,-1359 360,-3158 440,-3957 639,1439 1199,2718 1799,4236 1119,-399 3239,-1119 3518,-1239 -1199,-1918 -2479,-3917 -3678,-5835 z"
         class="com.sun.star.drawing.ClosedBezierShape"
         id="path6" />
      <path
         fill="#ffd300"
         d="m 8517,14349 c -440,559 -1080,879 -1760,959 -120,-799 -679,-4237 -799,-5036 1079,160 2279,480 2798,1599 360,799 280,1798 -239,2478 z M 10836,7994 C 9156,4277 5278,1719 1359,1479 c -40,40 -80,40 -80,80 400,2678 1240,8113 1280,8433 h 960 c 639,3997 1279,7994 1919,12031 1319,-400 2519,-1199 3638,-2159 2879,-3037 3519,-8073 1760,-11870 z m 8996,5955 c 0,0 200,-2318 320,-3557 160,1279 520,3557 520,3557 z m 1759,-6915 c -1119,-239 -2239,-439 -3398,-679 0,0 -40,400 -80,640 360,559 639,999 759,1518 960,2438 -40,5076 -1919,6875 -40,320 -80,639 -80,959 640,1079 1360,2158 2079,3238 h 360 c 120,-920 200,-1559 320,-2398 560,-40 840,-40 1440,-40 239,1598 679,3996 799,4716 1120,-120 2199,-320 3279,-560 -1160,-4796 -2279,-9552 -3559,-14269 z"
         class="com.sun.star.drawing.ClosedBezierShape"
         id="path7" />
      <path
         fill="#e30613"
         d="m 54778,15388 c 80,-1039 200,-2038 320,-3078 120,1000 240,2039 360,3078 z m 2039,-7834 c -1199,120 -2439,280 -3598,400 -120,439 -120,599 -160,959 440,560 959,1039 1199,2238 400,1679 0,4357 -1799,5636 560,639 1000,1319 1120,2118 319,1479 -160,2838 -1280,3877 l 1440,120 c 239,-1759 519,-3917 639,-4796 560,40 880,40 1440,40 200,1559 320,2997 519,4436 1040,-120 2280,-319 3319,-479 C 58856,17666 56897,7994 56817,7554 Z"
         class="com.sun.star.drawing.ClosedBezierShape"
         id="path8" />
      <path
         fill="#f18a00"
         d="m 36943,14655 c 920,1199 920,3198 160,4517 -960,1558 -2679,2158 -4438,1838 -1280,-280 -2639,-1439 -2999,-2718 -600,-1918 -40,-3437 1399,-4516 1160,-919 2999,-1079 4359,-440 559,280 1119,760 1519,1319 z"
         class="com.sun.star.drawing.ClosedBezierShape"
         id="path9" />
      <path
         fill="#e30613"
         d="m 34346,16187 c 400,-40 1320,-40 1720,-40 -280,320 -1000,920 -1400,1279 -40,80 360,1399 520,1999 -600,-520 -1120,-880 -1679,-1279 -520,359 -1240,879 -1760,1279 240,-640 520,-1319 760,-1959 -280,-279 -960,-879 -1359,-1319 519,0 1279,40 1839,40 280,-639 480,-1239 720,-1838 40,0 399,1199 639,1838 z"
         class="com.sun.star.drawing.ClosedBezierShape"
         id="path10" />
      <path
         fill="#ffd300"
         d="m 29028,14389 c -439,519 -719,1718 -679,2478 -560,40 -1600,40 -1600,40 v -2518 z m -3118,3277 c 320,280 719,480 1119,520 480,80 960,40 1360,-120 320,1239 1199,2678 2319,3277 -1200,1199 -2759,1759 -4359,1439 -319,-120 -679,-200 -959,-360 320,-119 680,-199 1079,-319 -439,-1839 -1079,-4357 -1559,-6435 120,439 480,1678 1000,1998 z"
         class="com.sun.star.drawing.ClosedBezierShape"
         id="path11" />
      <path
         fill="#e30613"
         d="m 49038,14284 c -280,280 -600,399 -1039,320 -40,-840 -80,-1639 -120,-2319 559,-40 1079,200 1359,680 200,400 120,959 -200,1319 z m 160,5076 c -200,360 -560,479 -920,519 -40,-599 -80,-1199 -159,-1838 239,-80 599,0 799,200 320,279 440,719 280,1119 z m 960,-2758 c 839,-200 1719,-600 2279,-1399 919,-1279 959,-3397 240,-4796 -680,-1159 -1840,-1799 -3039,-1999 -1719,-199 -3359,-80 -4958,320 0,1679 -40,3078 0,4996 160,40 320,40 520,80 240,2918 519,6075 799,9033 440,40 640,0 1040,0 2079,-200 4678,120 5438,-2278 360,-1279 -240,-2478 -1120,-3397 -360,-320 -679,-480 -1199,-560 z"
         class="com.sun.star.drawing.ClosedBezierShape"
         id="path12" />
    </g>
  </g>
</svg>
